<?xml version="1.0" encoding="utf-8"?>
<!-- Generator: Adobe Illustrator 19.1.0, SVG Export Plug-In . SVG Version: 6.00 Build 0)  -->
<svg version="1.1" xmlns="http://www.w3.org/2000/svg" xmlns:xlink="http://www.w3.org/1999/xlink" x="0px" y="0px"
	 viewBox="0 0 246.8 309.3" style="enable-background:new 0 0 246.8 309.3;" xml:space="preserve">
<style type="text/css">
	.st0{fill:#FAEAEA;}
	.st1{fill:#E5F7FD;}
	.st2{clip-path:url(#SVGID_2_);}
	.st3{fill:#EBF0F2;}
	.st4{fill:#9AB5BE;}
	.st5{fill:#A916A1;stroke:#FFFFFF;stroke-miterlimit:10;}
	.st6{fill:#03465C;}
	.st7{clip-path:url(#SVGID_4_);}
	.st8{opacity:0.75;fill:#03465C;}
	.st9{opacity:0.5;fill:#03465C;}
	.st10{opacity:0.25;}
	.st11{clip-path:url(#SVGID_6_);}
	.st12{fill:#03465C;stroke:#FFFFFF;stroke-miterlimit:10;}
	.st13{clip-path:url(#SVGID_8_);}
	.st14{fill:#FFFFFF;stroke:#03465C;stroke-miterlimit:10;}
	.st15{opacity:0.5;}
	.st16{fill:none;stroke:#FFFFFF;stroke-miterlimit:10;}
	.st17{fill:#A9A827;stroke:#FFFFFF;stroke-miterlimit:10;}
	.st18{fill:#F15A24;stroke:#FFFFFF;stroke-miterlimit:10;}
	.st19{clip-path:url(#SVGID_10_);}
	.st20{clip-path:url(#SVGID_12_);}
	.st21{clip-path:url(#SVGID_14_);}
	.st22{fill:#FFFFFF;}
	.st23{opacity:0.25;fill:#03465C;stroke:#FFFFFF;stroke-miterlimit:10;}
	.st24{clip-path:url(#SVGID_16_);}
	.st25{clip-path:url(#SVGID_18_);}
	.st26{clip-path:url(#SVGID_20_);}
	.st27{clip-path:url(#SVGID_22_);}
	.st28{clip-path:url(#SVGID_24_);}
	.st29{clip-path:url(#SVGID_26_);}
	.st30{clip-path:url(#SVGID_28_);}
	.st31{clip-path:url(#SVGID_30_);}
	.st32{clip-path:url(#SVGID_32_);}
	.st33{clip-path:url(#SVGID_34_);}
	.st34{clip-path:url(#SVGID_36_);}
	.st35{clip-path:url(#SVGID_38_);}
	.st36{clip-path:url(#SVGID_40_);}
	.st37{clip-path:url(#SVGID_42_);}
	.st38{clip-path:url(#SVGID_44_);}
	.st39{fill:#333333;}
</style>
<g id="Layer_4">
</g>
<g id="Layer_2">
</g>
<g id="Layer_3">
</g>
<g id="Layer_1">
	<g>
		<path class="st6" d="M123.4,187.2L34.7,98.5l88.7-88.7l88.7,88.7L123.4,187.2z M36.1,98.5l87.3,87.3l87.3-87.3l-87.3-87.3
			L36.1,98.5z"/>
		<path class="st6" d="M123.4,19.6L44.5,98.5l78.9,78.9l78.9-78.9L123.4,19.6z M156.8,103.3h-28.6c-2.7,0-4.8-2.2-4.8-4.8
			c0-2.7,2.2-4.8,4.8-4.8h23.4c-2.3-13.5-14-23.8-28.2-23.8c-15.8,0-28.6,12.8-28.6,28.6c0,15.8,12.8,28.6,28.6,28.6
			c2.7,0,4.8,2.2,4.8,4.8s-2.2,4.8-4.8,4.8c-21.1,0-38.2-17.1-38.2-38.2c0-21.1,17.1-38.2,38.2-38.2c21.1,0,38.2,17.1,38.2,38.2
			C161.6,101.2,159.5,103.3,156.8,103.3z M115.6,98.8c0,2.7-2.2,4.9-4.9,4.9s-4.9-2.2-4.9-4.9c0-2.7,2.2-4.9,4.9-4.9
			S115.6,96.1,115.6,98.8z"/>
		<g>
			<g>
				<circle class="st6" cx="25.3" cy="256.3" r="3"/>
				<path class="st6" d="M33,232.9c-12.8,0-23.2,10.4-23.2,23.2c0,12.8,10.4,23.2,23.2,23.2c1.6,0,2.9-1.3,2.9-2.9s-1.3-2.9-2.9-2.9
					c-9.6,0-17.4-7.8-17.4-17.4c0-9.6,7.8-17.4,17.4-17.4c8.6,0,15.7,6.3,17.1,14.5H35.9c-1.6,0-2.9,1.3-2.9,2.9
					c0,1.6,1.3,2.9,2.9,2.9h17.4c1.6,0,2.9-1.3,2.9-2.9C56.2,243.3,45.8,232.9,33,232.9z"/>
			</g>
			<path class="st6" d="M93.3,232.9c-12.8,0-23.2,10.4-23.2,23.2c0,0,0,0.1,0,0.1c0,0,0,0,0,0v40.2c0,1.6,1.3,2.9,2.9,2.9
				s2.9-1.3,2.9-2.9v-25c4.3,4.8,10.5,7.8,17.4,7.8c12.8,0,23.2-10.4,23.2-23.2C116.5,243.3,106.1,232.9,93.3,232.9z M93.3,273.5
				c-9.6,0-17.4-7.8-17.4-17.4c0-9.6,7.8-17.4,17.4-17.4c9.6,0,17.4,7.8,17.4,17.4C110.6,265.7,102.8,273.5,93.3,273.5z"/>
			<g>
				<circle class="st6" cx="153.5" cy="256.3" r="3"/>
				<path class="st6" d="M153.5,232.9c-12.8,0-23.2,10.4-23.2,23.2c0,12.8,10.4,23.2,23.2,23.2c12.8,0,23.2-10.4,23.2-23.2
					C176.7,243.3,166.3,232.9,153.5,232.9z M153.5,273.5c-9.6,0-17.4-7.8-17.4-17.4c0-9.6,7.8-17.4,17.4-17.4
					c9.6,0,17.4,7.8,17.4,17.4C170.9,265.7,163.1,273.5,153.5,273.5z"/>
			</g>
			<path class="st6" d="M236.9,256.1c0-12.8-10.4-23.2-23.2-23.2c-12.8,0-23.2,10.4-23.2,23.2c0,12.8,10.4,23.2,23.2,23.2
				c6.9,0,13.1-3,17.4-7.8v25c0,1.6,1.3,2.9,2.9,2.9s2.9-1.3,2.9-2.9v-40.2c0,0,0,0,0,0C236.9,256.2,236.9,256.2,236.9,256.1z
				 M213.7,273.5c-9.6,0-17.4-7.8-17.4-17.4c0-9.6,7.8-17.4,17.4-17.4c9.6,0,17.4,7.8,17.4,17.4
				C231.1,265.7,223.3,273.5,213.7,273.5z"/>
		</g>
	</g>
</g>
</svg>
