<?xml version="1.0" encoding="utf-8"?>
<!-- Generator: Adobe Illustrator 19.1.0, SVG Export Plug-In . SVG Version: 6.00 Build 0)  -->
<svg version="1.1" xmlns="http://www.w3.org/2000/svg" xmlns:xlink="http://www.w3.org/1999/xlink" x="0px" y="0px"
	 viewBox="0 0 197.1 197.1" style="enable-background:new 0 0 197.1 197.1;" xml:space="preserve">
<style type="text/css">
	.st0{fill:#FAEAEA;}
	.st1{fill:#E5F7FD;}
	.st2{clip-path:url(#SVGID_2_);}
	.st3{fill:#EBF0F2;}
	.st4{fill:#9AB5BE;}
	.st5{fill:#A916A1;stroke:#FFFFFF;stroke-miterlimit:10;}
	.st6{fill:#03465C;}
	.st7{clip-path:url(#SVGID_4_);}
	.st8{opacity:0.75;fill:#03465C;}
	.st9{opacity:0.5;fill:#03465C;}
	.st10{opacity:0.25;}
	.st11{clip-path:url(#SVGID_6_);}
	.st12{fill:#03465C;stroke:#FFFFFF;stroke-miterlimit:10;}
	.st13{clip-path:url(#SVGID_8_);}
	.st14{fill:#FFFFFF;stroke:#03465C;stroke-miterlimit:10;}
	.st15{opacity:0.5;}
	.st16{fill:none;stroke:#FFFFFF;stroke-miterlimit:10;}
	.st17{fill:#A9A827;stroke:#FFFFFF;stroke-miterlimit:10;}
	.st18{fill:#F15A24;stroke:#FFFFFF;stroke-miterlimit:10;}
	.st19{clip-path:url(#SVGID_10_);}
	.st20{clip-path:url(#SVGID_12_);}
	.st21{clip-path:url(#SVGID_14_);}
	.st22{fill:#FFFFFF;}
	.st23{opacity:0.25;fill:#03465C;stroke:#FFFFFF;stroke-miterlimit:10;}
	.st24{clip-path:url(#SVGID_16_);}
	.st25{clip-path:url(#SVGID_18_);}
	.st26{clip-path:url(#SVGID_20_);}
	.st27{clip-path:url(#SVGID_22_);}
	.st28{clip-path:url(#SVGID_24_);}
	.st29{clip-path:url(#SVGID_26_);}
	.st30{clip-path:url(#SVGID_28_);}
	.st31{clip-path:url(#SVGID_30_);}
	.st32{clip-path:url(#SVGID_32_);}
	.st33{clip-path:url(#SVGID_34_);}
	.st34{clip-path:url(#SVGID_36_);}
	.st35{clip-path:url(#SVGID_38_);}
	.st36{clip-path:url(#SVGID_40_);}
	.st37{clip-path:url(#SVGID_42_);}
	.st38{clip-path:url(#SVGID_44_);}
	.st39{fill:#333333;}
</style>
<g id="Layer_4">
</g>
<g id="Layer_2">
</g>
<g id="Layer_3">
</g>
<g id="Layer_1">
	<g>
		<path class="st22" d="M98.5,187.2L9.8,98.5L98.5,9.8l88.7,88.7L98.5,187.2z M11.2,98.5l87.3,87.3l87.3-87.3L98.5,11.2L11.2,98.5z"
			/>
		<path class="st22" d="M98.5,19.6L19.6,98.5l78.9,78.9l78.9-78.9L98.5,19.6z M131.9,103.3h-28.6c-2.7,0-4.8-2.2-4.8-4.8
			c0-2.7,2.2-4.8,4.8-4.8h23.4c-2.3-13.5-14-23.8-28.2-23.8c-15.8,0-28.6,12.8-28.6,28.6c0,15.8,12.8,28.6,28.6,28.6
			c2.7,0,4.8,2.2,4.8,4.8s-2.2,4.8-4.8,4.8c-21.1,0-38.2-17.1-38.2-38.2c0-21.1,17.1-38.2,38.2-38.2c21.1,0,38.2,17.1,38.2,38.2
			C136.8,101.2,134.6,103.3,131.9,103.3z M90.8,98.8c0,2.7-2.2,4.9-4.9,4.9s-4.9-2.2-4.9-4.9c0-2.7,2.2-4.9,4.9-4.9
			S90.8,96.1,90.8,98.8z"/>
	</g>
</g>
</svg>
